<svg width="149" height="12" viewBox="0 0 149 12" fill="none" xmlns="http://www.w3.org/2000/svg">
<path d="M15.6939 6.39933C15.7339 6.87933 15.9099 7.25533 16.2219 7.52733C16.5339 7.79133 17.0299 7.92333 17.7099 7.92333C18.8619 7.92333 19.4379 7.55133 19.4379 6.80733C19.4379 6.48733 19.3499 6.25533 19.1739 6.11133C18.9979 5.96733 18.7059 5.87133 18.2979 5.82333L16.3419 5.60733C14.8299 5.44733 14.0739 4.73533 14.0739 3.47133C14.0739 2.72733 14.3699 2.13533 14.9619 1.69533C15.5539 1.24733 16.4259 1.02333 17.5779 1.02333C18.7379 1.02333 19.6099 1.24733 20.1939 1.69533C20.7859 2.14333 21.1019 2.76733 21.1419 3.56733H19.3899C19.3499 3.13533 19.1819 2.81533 18.8859 2.60733C18.5899 2.39133 18.1539 2.28333 17.5779 2.28333C17.0179 2.28333 16.5939 2.37933 16.3059 2.57133C16.0179 2.76333 15.8739 3.02733 15.8739 3.36333C15.8739 3.91533 16.2219 4.23533 16.9179 4.32333L18.7299 4.51533C19.6179 4.60333 20.2579 4.81133 20.6499 5.13933C21.0419 5.45933 21.2379 5.96333 21.2379 6.65133C21.2379 8.33933 20.0499 9.18333 17.6739 9.18333C16.4179 9.18333 15.4979 8.93133 14.9139 8.42733C14.3379 7.92333 14.0219 7.24733 13.9659 6.39933H15.6939Z" fill="white"/>
<path d="M25.1414 9.18333C24.0134 9.18333 23.1774 8.88733 22.6334 8.29533C22.0894 7.69533 21.8174 6.93133 21.8174 6.00333C21.8174 5.39533 21.9374 4.85133 22.1774 4.37133C22.4174 3.89133 22.7854 3.51533 23.2814 3.24333C23.7854 2.96333 24.4054 2.82333 25.1414 2.82333C26.2374 2.82333 27.0454 3.11533 27.5654 3.69933C28.0934 4.27533 28.3574 5.02333 28.3574 5.94333C28.3574 6.12733 28.3454 6.27933 28.3214 6.39933H23.5094C23.5574 6.97533 23.7214 7.39533 24.0014 7.65933C24.2894 7.91533 24.6854 8.04333 25.1894 8.04333C25.5814 8.04333 25.8974 7.96333 26.1374 7.80333C26.3854 7.64333 26.5574 7.42733 26.6534 7.15533H28.3334C28.2214 7.74733 27.9094 8.23533 27.3974 8.61933C26.8854 8.99533 26.1334 9.18333 25.1414 9.18333ZM26.6894 5.40333C26.6574 4.93933 26.5094 4.58333 26.2454 4.33533C25.9894 4.07933 25.6294 3.95133 25.1654 3.95133C24.7014 3.95133 24.3294 4.07533 24.0494 4.32333C23.7694 4.57133 23.5974 4.93133 23.5334 5.40333H26.6894Z" fill="white"/>
<path d="M34.0787 5.99133C34.0787 5.39133 33.9267 4.93133 33.6227 4.61133C33.3187 4.28333 32.8907 4.11933 32.3387 4.11933C31.7867 4.11933 31.3707 4.27533 31.0907 4.58733C30.8107 4.89933 30.6707 5.36733 30.6707 5.99133C30.6707 6.60733 30.8067 7.07533 31.0787 7.39533C31.3507 7.71533 31.7547 7.87533 32.2907 7.87533C32.8587 7.87533 33.2987 7.71533 33.6107 7.39533C33.9227 7.06733 34.0787 6.59933 34.0787 5.99133ZM28.9307 6.00333C28.9307 5.05933 29.1707 4.29533 29.6507 3.71133C30.1387 3.11933 30.8587 2.82333 31.8107 2.82333C32.7307 2.82333 33.4307 3.10733 33.9107 3.67533H34.0787V2.97933H35.8067V11.2713H34.0787V8.29533H33.9227C33.4667 8.88733 32.7627 9.18333 31.8107 9.18333C30.8587 9.18333 30.1387 8.88733 29.6507 8.29533C29.1707 7.70333 28.9307 6.93933 28.9307 6.00333Z" fill="white"/>
<path d="M38.7719 9.18333C37.9959 9.18333 37.4038 8.96733 36.9958 8.53533C36.5878 8.10333 36.3839 7.48333 36.3839 6.67533V2.97933H38.1119V6.38733C38.1119 6.85933 38.2238 7.21933 38.4478 7.46733C38.6798 7.70733 39.0118 7.82733 39.4438 7.82733C39.9238 7.82733 40.2959 7.67533 40.5599 7.37133C40.8319 7.06733 40.9678 6.61933 40.9678 6.02733V2.97933H42.7078V9.06333H40.9799V8.17533H40.8118C40.3558 8.84733 39.6759 9.18333 38.7719 9.18333Z" fill="white"/>
<path d="M46.6102 9.18333C45.4822 9.18333 44.6462 8.88733 44.1022 8.29533C43.5582 7.69533 43.2862 6.93133 43.2862 6.00333C43.2862 5.39533 43.4062 4.85133 43.6462 4.37133C43.8862 3.89133 44.2542 3.51533 44.7502 3.24333C45.2542 2.96333 45.8742 2.82333 46.6102 2.82333C47.7062 2.82333 48.5142 3.11533 49.0342 3.69933C49.5622 4.27533 49.8262 5.02333 49.8262 5.94333C49.8262 6.12733 49.8142 6.27933 49.7902 6.39933H44.9782C45.0262 6.97533 45.1902 7.39533 45.4702 7.65933C45.7582 7.91533 46.1542 8.04333 46.6582 8.04333C47.0502 8.04333 47.3662 7.96333 47.6062 7.80333C47.8542 7.64333 48.0262 7.42733 48.1222 7.15533H49.8022C49.6902 7.74733 49.3782 8.23533 48.8662 8.61933C48.3542 8.99533 47.6022 9.18333 46.6102 9.18333ZM48.1582 5.40333C48.1262 4.93933 47.9782 4.58333 47.7142 4.33533C47.4582 4.07933 47.0982 3.95133 46.6342 3.95133C46.1702 3.95133 45.7982 4.07533 45.5182 4.32333C45.2382 4.57133 45.0662 4.93133 45.0022 5.40333H48.1582Z" fill="white"/>
<path d="M52.2955 3.83133C52.7515 3.15933 53.4315 2.82333 54.3355 2.82333C55.1115 2.82333 55.7035 3.03933 56.1115 3.47133C56.5195 3.90333 56.7235 4.52333 56.7235 5.33133V9.06333H54.9955V5.61933C54.9955 5.14733 54.8795 4.79133 54.6475 4.55133C54.4235 4.30333 54.0955 4.17933 53.6635 4.17933C53.1835 4.17933 52.8075 4.33133 52.5355 4.63533C52.2715 4.93133 52.1395 5.37933 52.1395 5.97933V9.06333H50.3995V2.97933H52.1275V3.83133H52.2955Z" fill="white"/>
<path d="M57.2667 6.01533C57.2667 5.42333 57.3867 4.88733 57.6267 4.40733C57.8747 3.92733 58.2547 3.54333 58.7667 3.25533C59.2787 2.96733 59.9187 2.82333 60.6867 2.82333C61.3747 2.82333 61.9587 2.93933 62.4387 3.17133C62.9187 3.39533 63.2827 3.70333 63.5307 4.09533C63.7867 4.48733 63.9267 4.93533 63.9507 5.43933H62.2467C62.1987 5.00733 62.0427 4.68333 61.7787 4.46733C61.5227 4.24333 61.1667 4.13133 60.7107 4.13133C60.1587 4.13133 59.7347 4.28333 59.4387 4.58733C59.1507 4.88333 59.0067 5.35933 59.0067 6.01533C59.0067 6.66333 59.1467 7.13533 59.4267 7.43133C59.7147 7.72733 60.1307 7.87533 60.6747 7.87533C61.1627 7.87533 61.5387 7.75933 61.8027 7.52733C62.0667 7.29533 62.2187 6.96333 62.2587 6.53133H63.9627C63.9387 7.02733 63.8027 7.47933 63.5547 7.88733C63.3147 8.28733 62.9507 8.60733 62.4627 8.84733C61.9827 9.07933 61.3947 9.19533 60.6987 9.19533C59.9307 9.19533 59.2867 9.05133 58.7667 8.76333C58.2547 8.47533 57.8747 8.09133 57.6267 7.61133C57.3867 7.13133 57.2667 6.59933 57.2667 6.01533Z" fill="white"/>
<path d="M67.868 9.18333C66.74 9.18333 65.904 8.88733 65.36 8.29533C64.816 7.69533 64.544 6.93133 64.544 6.00333C64.544 5.39533 64.664 4.85133 64.904 4.37133C65.144 3.89133 65.512 3.51533 66.008 3.24333C66.512 2.96333 67.132 2.82333 67.868 2.82333C68.964 2.82333 69.772 3.11533 70.292 3.69933C70.82 4.27533 71.084 5.02333 71.084 5.94333C71.084 6.12733 71.072 6.27933 71.048 6.39933H66.236C66.284 6.97533 66.448 7.39533 66.728 7.65933C67.016 7.91533 67.412 8.04333 67.916 8.04333C68.308 8.04333 68.624 7.96333 68.864 7.80333C69.112 7.64333 69.284 7.42733 69.38 7.15533H71.06C70.948 7.74733 70.636 8.23533 70.124 8.61933C69.612 8.99533 68.86 9.18333 67.868 9.18333ZM69.416 5.40333C69.384 4.93933 69.236 4.58333 68.972 4.33533C68.716 4.07933 68.356 3.95133 67.892 3.95133C67.428 3.95133 67.056 4.07533 66.776 4.32333C66.496 4.57133 66.324 4.93133 66.26 5.40333H69.416Z" fill="white"/>
<path d="M80.1893 5.91933C80.0693 7.00733 79.6693 7.82333 78.9893 8.36733C78.3093 8.91133 77.3013 9.18333 75.9653 9.18333C75.0053 9.18333 74.2013 9.00733 73.5533 8.65533C72.9133 8.29533 72.4373 7.80733 72.1253 7.19133C71.8133 6.56733 71.6573 5.85933 71.6573 5.06733C71.6573 4.31533 71.8133 3.63533 72.1253 3.02733C72.4373 2.41133 72.9173 1.92333 73.5653 1.56333C74.2133 1.20333 75.0173 1.02333 75.9773 1.02333C77.2573 1.02333 78.2373 1.29133 78.9173 1.82733C79.5973 2.35533 80.0013 3.12333 80.1293 4.13133H78.2933C78.1973 3.55533 77.9613 3.12733 77.5853 2.84733C77.2093 2.56733 76.6813 2.42733 76.0013 2.42733C75.2093 2.42733 74.5973 2.65533 74.1653 3.11133C73.7413 3.55933 73.5293 4.21133 73.5293 5.06733C73.5293 5.95533 73.7333 6.63133 74.1413 7.09533C74.5573 7.55933 75.1613 7.79133 75.9533 7.79133C76.6733 7.79133 77.2293 7.63933 77.6213 7.33533C78.0133 7.02333 78.2493 6.55133 78.3293 5.91933H80.1893Z" fill="white"/>
<path d="M84.2188 9.18333C83.4268 9.18333 82.7708 9.04333 82.2508 8.76333C81.7388 8.47533 81.3628 8.09533 81.1228 7.62333C80.8828 7.14333 80.7628 6.61533 80.7628 6.03933C80.7628 5.43933 80.8828 4.89933 81.1228 4.41933C81.3628 3.93133 81.7388 3.54333 82.2508 3.25533C82.7708 2.96733 83.4268 2.82333 84.2188 2.82333C85.0108 2.82333 85.6628 2.96733 86.1748 3.25533C86.6948 3.54333 87.0748 3.93133 87.3148 4.41933C87.5548 4.89933 87.6748 5.43933 87.6748 6.03933C87.6748 6.61533 87.5548 7.13933 87.3148 7.61133C87.0748 8.08333 86.6948 8.46333 86.1748 8.75133C85.6628 9.03933 85.0108 9.18333 84.2188 9.18333ZM82.5028 6.03933C82.5028 6.63933 82.6468 7.09533 82.9348 7.40733C83.2228 7.71933 83.6508 7.87533 84.2188 7.87533C84.7868 7.87533 85.2148 7.71933 85.5028 7.40733C85.7908 7.09533 85.9348 6.63933 85.9348 6.03933C85.9348 5.42333 85.7908 4.95133 85.5028 4.62333C85.2148 4.29533 84.7868 4.13133 84.2188 4.13133C83.6508 4.13133 83.2228 4.29533 82.9348 4.62333C82.6468 4.95133 82.5028 5.42333 82.5028 6.03933Z" fill="white"/>
<path d="M90.147 3.83133C90.603 3.15933 91.283 2.82333 92.187 2.82333C92.963 2.82333 93.555 3.03933 93.963 3.47133C94.371 3.90333 94.575 4.52333 94.575 5.33133V9.06333H92.847V5.61933C92.847 5.14733 92.731 4.79133 92.499 4.55133C92.275 4.30333 91.947 4.17933 91.515 4.17933C91.035 4.17933 90.659 4.33133 90.387 4.63533C90.123 4.93133 89.991 5.37933 89.991 5.97933V9.06333H88.251V2.97933H89.979V3.83133H90.147Z" fill="white"/>
<path d="M98.1409 7.77933L99.9049 2.97933H101.561L99.2569 9.06333H96.9649L94.6729 2.97933H96.4369L98.1409 7.77933Z" fill="white"/>
<path d="M104.946 9.18333C103.818 9.18333 102.982 8.88733 102.438 8.29533C101.894 7.69533 101.622 6.93133 101.622 6.00333C101.622 5.39533 101.742 4.85133 101.982 4.37133C102.222 3.89133 102.59 3.51533 103.086 3.24333C103.59 2.96333 104.21 2.82333 104.946 2.82333C106.042 2.82333 106.85 3.11533 107.37 3.69933C107.898 4.27533 108.162 5.02333 108.162 5.94333C108.162 6.12733 108.15 6.27933 108.126 6.39933H103.314C103.362 6.97533 103.526 7.39533 103.806 7.65933C104.094 7.91533 104.49 8.04333 104.994 8.04333C105.386 8.04333 105.702 7.96333 105.942 7.80333C106.19 7.64333 106.362 7.42733 106.458 7.15533H108.138C108.026 7.74733 107.714 8.23533 107.202 8.61933C106.69 8.99533 105.938 9.18333 104.946 9.18333ZM106.494 5.40333C106.462 4.93933 106.314 4.58333 106.05 4.33533C105.794 4.07933 105.434 3.95133 104.97 3.95133C104.506 3.95133 104.134 4.07533 103.854 4.32333C103.574 4.57133 103.402 4.93133 103.338 5.40333H106.494Z" fill="white"/>
<path d="M110.571 3.90333C110.923 3.26333 111.519 2.94333 112.359 2.94333H112.767V4.55133H112.155C111.603 4.55133 111.183 4.71133 110.895 5.03133C110.607 5.35133 110.463 5.83933 110.463 6.49533V9.06333H108.735V2.97933H110.415V3.90333H110.571Z" fill="white"/>
<path d="M113.282 4.25133L113.294 2.97933H115.166V2.82333L114.65 2.61933C114.53 2.57133 114.438 2.49933 114.374 2.40333C114.31 2.29933 114.278 2.18333 114.278 2.05533V1.04733H116.342V2.96733L118.274 2.97933V4.25133H116.33V7.73133H118.346V9.06333H116.594C116.074 9.06333 115.67 8.99933 115.382 8.87133C115.094 8.74333 114.89 8.54733 114.77 8.28333C114.658 8.01133 114.602 7.65533 114.602 7.21533V4.25133H113.282Z" fill="white"/>
<path d="M122.091 9.18333C120.963 9.18333 120.127 8.88733 119.583 8.29533C119.039 7.69533 118.767 6.93133 118.767 6.00333C118.767 5.39533 118.887 4.85133 119.127 4.37133C119.367 3.89133 119.735 3.51533 120.231 3.24333C120.735 2.96333 121.355 2.82333 122.091 2.82333C123.187 2.82333 123.995 3.11533 124.515 3.69933C125.043 4.27533 125.307 5.02333 125.307 5.94333C125.307 6.12733 125.295 6.27933 125.271 6.39933H120.459C120.507 6.97533 120.671 7.39533 120.951 7.65933C121.239 7.91533 121.635 8.04333 122.139 8.04333C122.531 8.04333 122.847 7.96333 123.087 7.80333C123.335 7.64333 123.507 7.42733 123.603 7.15533H125.283C125.171 7.74733 124.859 8.23533 124.347 8.61933C123.835 8.99533 123.083 9.18333 122.091 9.18333ZM123.639 5.40333C123.607 4.93933 123.459 4.58333 123.195 4.33533C122.939 4.07933 122.579 3.95133 122.115 3.95133C121.651 3.95133 121.279 4.07533 120.999 4.32333C120.719 4.57133 120.547 4.93133 120.483 5.40333H123.639Z" fill="white"/>
<path d="M127.716 3.90333C128.068 3.26333 128.664 2.94333 129.504 2.94333H129.912V4.55133H129.3C128.748 4.55133 128.328 4.71133 128.04 5.03133C127.752 5.35133 127.608 5.83933 127.608 6.49533V9.06333H125.88V2.97933H127.56V3.90333H127.716Z" fill="white"/>
<path d="M130.373 8.46333C130.373 8.32467 130.419 8.21267 130.509 8.12733C130.6 8.03667 130.712 7.99133 130.845 7.99133H131.085C131.224 7.99133 131.336 8.03667 131.421 8.12733C131.512 8.21267 131.557 8.32467 131.557 8.46333V8.59133C131.557 8.72467 131.512 8.83667 131.421 8.92733C131.336 9.018 131.224 9.06333 131.085 9.06333H130.845C130.712 9.06333 130.6 9.018 130.509 8.92733C130.419 8.83667 130.373 8.72467 130.373 8.59133V8.46333Z" fill="white"/>
<path d="M131.944 7.03133C131.944 6.63667 132.024 6.27933 132.184 5.95933C132.349 5.63933 132.602 5.38333 132.944 5.19133C133.285 4.99933 133.712 4.90333 134.224 4.90333C134.682 4.90333 135.072 4.98067 135.392 5.13533C135.712 5.28467 135.954 5.49 136.12 5.75133C136.29 6.01267 136.384 6.31133 136.4 6.64733H135.264C135.232 6.35933 135.128 6.14333 134.952 5.99933C134.781 5.85 134.544 5.77533 134.24 5.77533C133.872 5.77533 133.589 5.87667 133.392 6.07933C133.2 6.27667 133.104 6.594 133.104 7.03133C133.104 7.46333 133.197 7.778 133.384 7.97533C133.576 8.17267 133.853 8.27133 134.216 8.27133C134.541 8.27133 134.792 8.194 134.968 8.03933C135.144 7.88467 135.245 7.66333 135.272 7.37533H136.408C136.392 7.706 136.301 8.00733 136.136 8.27933C135.976 8.546 135.733 8.75933 135.408 8.91933C135.088 9.074 134.696 9.15133 134.232 9.15133C133.72 9.15133 133.29 9.05533 132.944 8.86333C132.602 8.67133 132.349 8.41533 132.184 8.09533C132.024 7.77533 131.944 7.42067 131.944 7.03133Z" fill="white"/>
<path d="M139.099 9.14333C138.571 9.14333 138.134 9.05 137.787 8.86333C137.446 8.67133 137.195 8.418 137.035 8.10333C136.875 7.78333 136.795 7.43133 136.795 7.04733C136.795 6.64733 136.875 6.28733 137.035 5.96733C137.195 5.642 137.446 5.38333 137.787 5.19133C138.134 4.99933 138.571 4.90333 139.099 4.90333C139.627 4.90333 140.062 4.99933 140.403 5.19133C140.75 5.38333 141.003 5.642 141.163 5.96733C141.323 6.28733 141.403 6.64733 141.403 7.04733C141.403 7.43133 141.323 7.78067 141.163 8.09533C141.003 8.41 140.75 8.66333 140.403 8.85533C140.062 9.04733 139.627 9.14333 139.099 9.14333ZM137.955 7.04733C137.955 7.44733 138.051 7.75133 138.243 7.95933C138.435 8.16733 138.721 8.27133 139.099 8.27133C139.478 8.27133 139.763 8.16733 139.955 7.95933C140.147 7.75133 140.243 7.44733 140.243 7.04733C140.243 6.63667 140.147 6.322 139.955 6.10333C139.763 5.88467 139.478 5.77533 139.099 5.77533C138.721 5.77533 138.435 5.88467 138.243 6.10333C138.051 6.322 137.955 6.63667 137.955 7.04733Z" fill="white"/>
<path d="M141.787 5.00733H142.955V5.52733H143.051C143.339 5.11133 143.771 4.90333 144.347 4.90333C144.678 4.90333 144.969 4.96733 145.219 5.09533C145.475 5.22333 145.665 5.40467 145.787 5.63933H145.899C146.182 5.14867 146.638 4.90333 147.267 4.90333C147.801 4.90333 148.217 5.05 148.515 5.34333C148.819 5.63133 148.971 6.042 148.971 6.57533V9.06333H147.803V6.68733C147.803 6.40467 147.721 6.18867 147.555 6.03933C147.39 5.88467 147.169 5.80733 146.891 5.80733C146.63 5.80733 146.417 5.874 146.251 6.00733C146.086 6.14067 145.99 6.33533 145.963 6.59133V9.06333H144.811V6.67133C144.811 6.38867 144.731 6.17533 144.571 6.03133C144.417 5.882 144.198 5.80733 143.915 5.80733C143.606 5.80733 143.369 5.90333 143.203 6.09533C143.038 6.282 142.955 6.56467 142.955 6.94333V9.06333H141.787V5.00733Z" fill="white"/>
<path d="M0.56044 7.79213C0.560479 7.4489 0.75339 7.1967 0.997552 7.00222C1.15382 6.87774 1.38131 6.90341 1.50579 7.05968C1.63023 7.21592 1.6045 7.44343 1.44832 7.56792C1.2918 7.69259 1.28395 7.75858 1.28394 7.79213C1.28394 7.83228 1.29694 7.9286 1.59246 8.11855C1.88168 8.30441 2.32734 8.50844 2.97162 8.80201L3.79403 9.17694C4.62069 9.55364 4.93629 9.68895 5.26316 9.68895C5.59004 9.68895 5.90564 9.55364 6.73229 9.17694L7.55471 8.80201C8.19899 8.50844 8.64465 8.30441 8.93387 8.11855C9.22939 7.9286 9.24239 7.83228 9.24239 7.79213C9.24238 7.75858 9.23452 7.6926 9.078 7.56792C8.92184 7.44342 8.8961 7.21591 9.02054 7.05968C9.14502 6.90343 9.37251 6.87776 9.52878 7.00222C9.77289 7.19668 9.96585 7.44889 9.96589 7.79213C9.96589 8.22553 9.66226 8.51025 9.32482 8.72711C8.98091 8.94812 8.47671 9.17711 7.85475 9.4605L7.03234 9.83497C6.26524 10.1845 5.78383 10.4124 5.26316 10.4124C4.7425 10.4124 4.2611 10.1845 3.49399 9.83497L2.67158 9.4605C2.04963 9.17711 1.54542 8.94812 1.20151 8.72711C0.864067 8.51025 0.56044 8.22553 0.56044 7.79213ZM0.56044 5.09739C0.560485 4.90495 0.622406 4.73271 0.729538 4.58208C0.845351 4.41934 1.07122 4.38152 1.23401 4.4973C1.39681 4.6131 1.43506 4.83896 1.31926 5.00177C1.29022 5.04262 1.28397 5.07024 1.28394 5.09739C1.28394 5.13751 1.29697 5.23387 1.59246 5.42381C1.88169 5.60969 2.32729 5.81415 2.97162 6.10774L3.79403 6.4822C4.62074 6.85888 4.93628 6.99421 5.26316 6.99421C5.59005 6.99421 5.90559 6.85888 6.73229 6.4822L7.55471 6.10774C8.19905 5.81415 8.64464 5.60968 8.93387 5.42381C9.22936 5.23387 9.24239 5.13751 9.24239 5.09739C9.24236 5.07027 9.23611 5.04265 9.20706 5.00177C9.09129 4.83896 9.12952 4.61309 9.29232 4.4973C9.45511 4.38154 9.68099 4.41935 9.79679 4.58208C9.90387 4.73266 9.96584 4.90493 9.96589 5.09739C9.96589 5.53081 9.66229 5.81597 9.32482 6.03284C8.98092 6.25384 8.47664 6.4824 7.85475 6.76576L7.03234 7.1407C6.26531 7.49018 5.78381 7.71771 5.26316 7.71771C4.74252 7.71771 4.26102 7.49018 3.49399 7.1407L2.67158 6.76576C2.04969 6.4824 1.54541 6.25384 1.20151 6.03284C0.864044 5.81597 0.56044 5.53081 0.56044 5.09739ZM9.24239 2.69515C9.24239 2.64912 9.2258 2.55022 8.93151 2.35837C8.64237 2.16989 8.19711 1.96283 7.55282 1.66502L6.73041 1.2849C5.90333 0.902585 5.58873 0.765832 5.26316 0.765832C4.9376 0.765832 4.623 0.902588 3.79592 1.2849L2.97351 1.66502C2.32923 1.96283 1.88396 2.16989 1.59481 2.35837C1.30053 2.55022 1.28394 2.64912 1.28394 2.69515C1.28394 2.74119 1.30052 2.84009 1.59481 3.03194C1.88396 3.22042 2.32923 3.42748 2.97351 3.72529L3.79592 4.10541C4.62301 4.48771 4.9376 4.62448 5.26316 4.62448C5.58873 4.62448 5.90332 4.48771 6.73041 4.10541L7.55282 3.72529C8.19711 3.42748 8.64237 3.22042 8.93151 3.03194C9.2258 2.84009 9.24239 2.74119 9.24239 2.69515ZM9.96589 2.69515C9.96589 3.12953 9.66559 3.41723 9.32671 3.63815C8.98272 3.86237 8.47844 4.09448 7.85663 4.3819L7.03422 4.76202C6.26763 5.11636 5.78513 5.34797 5.26316 5.34797C4.7412 5.34797 4.25871 5.11636 3.49211 4.76202L2.66969 4.3819C2.04789 4.09448 1.54361 3.86237 1.19962 3.63815C0.860745 3.41723 0.56044 3.12953 0.56044 2.69515C0.56044 2.26077 0.860745 1.97308 1.19962 1.75216C1.54361 1.52793 2.04789 1.29583 2.66969 1.00841L3.49211 0.628292C4.25872 0.273926 4.7412 0.0423355 5.26316 0.0423355C5.78513 0.0423355 6.26761 0.273926 7.03422 0.628292L7.85663 1.00841C8.47844 1.29583 8.98272 1.52794 9.32671 1.75216C9.66559 1.97308 9.96589 2.26078 9.96589 2.69515Z" fill="white"/>
</svg>
